<svg version="1.2" baseProfile="tiny-ps" xmlns="http://www.w3.org/2000/svg" viewBox="0 0 293 301" width="293" height="301">
	<title>&lt;Compound Path&gt;</title>
	<style>
		tspan { white-space:pre }
		.shp0 { fill: #FF6A59 } 
	</style>
	<path id="&lt;Compound Path&gt;" fill-rule="evenodd" class="shp0" d="M285.85 217.82C273.31 242.89 253.97 263.99 230.27 278.64C207.24 292.89 180.18 301.12 151.3 301.12C109.75 301.12 72.14 284.27 44.91 257.04C17.69 229.82 0.84 192.21 0.84 150.65C0.84 109.11 17.69 71.49 44.91 44.27C72.14 17.05 109.75 0.2 151.3 0.2C180.18 0.2 207.24 8.42 230.27 22.67C253.98 37.33 273.31 58.42 285.85 83.49L292.72 97.24L224.26 165.7L224.26 165.7L196.65 193.32L196.56 193.32L194.84 195.04C189.25 200.37 182.65 204.64 175.36 207.56C168.21 210.42 160.52 211.99 152.59 211.99C135.66 211.99 120.32 205.12 109.22 194.02C98.13 182.92 91.25 167.59 91.25 150.65C91.25 133.78 98.13 118.47 109.22 107.37L109.3 107.28C120.4 96.19 135.71 89.32 152.59 89.32C160.52 89.32 168.21 90.89 175.36 93.74C182.65 96.66 189.25 100.94 194.84 106.25L195.17 106.59L196.56 107.99L196.65 107.99L209.22 120.55L240.3 89.48C231.79 77.14 220.77 66.65 207.99 58.74C191.6 48.61 172.18 42.76 151.3 42.76C121.5 42.76 94.53 54.83 75.01 74.36C55.48 93.88 43.41 120.86 43.41 150.65C43.41 180.44 55.48 207.42 75.01 226.94C94.53 246.47 121.5 258.54 151.3 258.54C172.18 258.54 191.61 252.69 207.99 242.56C225.04 232.01 238.95 216.86 247.95 198.85L285.85 217.81L285.85 217.82ZM166.59 138.05L165.58 137.03C163.85 135.38 161.8 134.06 159.56 133.17C157.51 132.33 155.16 131.89 152.59 131.89C147.37 131.89 142.66 133.97 139.27 137.34C135.9 140.73 133.82 145.45 133.82 150.66C133.82 155.85 135.92 160.54 139.32 163.93C142.71 167.33 147.41 169.43 152.59 169.43C155.16 169.43 157.51 168.98 159.56 168.16C161.8 167.26 163.85 165.94 165.58 164.29L166.59 163.28L166.56 163.23L179.12 150.66L166.56 138.1L166.59 138.05Z" />
</svg>